<svg width="360" height="640" viewBox="0 0 360 640" fill="none" xmlns="http://www.w3.org/2000/svg">
<rect x="1.52588e-05" width="360" height="640" fill="white"/>
<path d="M1.52588e-05 21H360V282C360 282 313.5 266 280 269.5C246.5 273 195.973 291.895 129.5 288.5C63.0273 285.105 1.52588e-05 214.5 1.52588e-05 214.5V21Z" fill="#6FA7C6"/>
<path d="M1.52588e-05 0H360V256C360 256 327.019 242.16 275.5 245.5C230.448 248.421 176.538 283.225 114 276.228C51.4618 269.23 2.11e-05 214 1.52588e-05 207C9.41753e-06 200 1.52588e-05 0 1.52588e-05 0Z" fill="#35B6FF"/>
</svg>
